<svg width="32" height="32" viewBox="0 0 32 32" xmlns="http://www.w3.org/2000/svg">
  <defs>
    <linearGradient id="faviconGradient" x1="0%" y1="0%" x2="100%" y2="100%">
      <stop offset="0%" style="stop-color:#8B4513;stop-opacity:1" />
      <stop offset="100%" style="stop-color:#D2691E;stop-opacity:1" />
    </linearGradient>
  </defs>
  
  <!-- Background -->
  <circle cx="16" cy="16" r="15" fill="url(#faviconGradient)"/>
  
  <!-- Coffee Cup -->
  <path d="M 10 18 L 10 22 Q 10 24 12 24 L 20 24 Q 22 24 22 22 L 22 18 Z" fill="#FFD700"/>
  
  <!-- Coffee -->
  <path d="M 11 19 L 11 21 Q 11 23 13 23 L 19 23 Q 21 23 21 21 L 21 19 Z" fill="#3E2723"/>
  
  <!-- Handle -->
  <path d="M 22 19 Q 24 19 24 21 Q 24 23 22 23" fill="none" stroke="#654321" stroke-width="1"/>
  
  <!-- Steam -->
  <path d="M 14 16 Q 13 14 14 12" fill="none" stroke="#FFD700" stroke-width="1" opacity="0.8"/>
  <path d="M 18 16 Q 17 14 18 12" fill="none" stroke="#FFD700" stroke-width="1" opacity="0.8"/>
  
  <!-- BR -->
  <text x="16" y="10" font-family="Arial, sans-serif" font-size="6" font-weight="bold" text-anchor="middle" fill="#FFD700">BR</text>
</svg>