<svg width="100" height="100" viewBox="0 0 100 100" xmlns="http://www.w3.org/2000/svg">
  <defs>
    <linearGradient id="skinGradient" x1="0%" y1="0%" x2="100%" y2="100%">
      <stop offset="0%" style="stop-color:#FDBCB4;stop-opacity:1" />
      <stop offset="100%" style="stop-color:#E8A798;stop-opacity:1" />
    </linearGradient>
  </defs>
  
  <!-- Background -->
  <circle cx="50" cy="50" r="48" fill="#D2691E" stroke="#FFFFFF" stroke-width="2"/>
  
  <!-- Head -->
  <ellipse cx="50" cy="45" rx="25" ry="30" fill="url(#skinGradient)"/>
  
  <!-- Hair -->
  <path d="M 25 35 Q 25 20 40 15 Q 50 12 60 15 Q 75 20 75 35 Q 70 25 60 22 Q 50 20 40 22 Q 30 25 25 35" fill="#2F4F4F"/>
  
  <!-- Eyes -->
  <ellipse cx="42" cy="40" rx="3" ry="2" fill="#FFF"/>
  <circle cx="42" cy="40" r="1.5" fill="#654321"/>
  
  <ellipse cx="58" cy="40" rx="3" ry="2" fill="#FFF"/>
  <circle cx="58" cy="40" r="1.5" fill="#654321"/>
  
  <!-- Eyebrows -->
  <path d="M 38 35 Q 42 33 46 35" fill="none" stroke="#2F4F4F" stroke-width="1"/>
  <path d="M 54 35 Q 58 33 62 35" fill="none" stroke="#2F4F4F" stroke-width="1"/>
  
  <!-- Nose -->
  <ellipse cx="50" cy="47" rx="1.5" ry="3" fill="#E8A798"/>
  
  <!-- Mouth -->
  <path d="M 46 52 Q 50 55 54 52" fill="none" stroke="#8B4513" stroke-width="1"/>
  
  <!-- Beard -->
  <path d="M 35 55 Q 40 60 50 58 Q 60 60 65 55 Q 62 65 50 65 Q 38 65 35 55" fill="#2F4F4F"/>
  
  <!-- Shirt -->
  <path d="M 30 70 L 30 85 Q 30 90 35 90 L 65 90 Q 70 90 70 85 L 70 70 Q 65 65 60 62 L 40 62 Q 35 65 30 70" fill="#4682B4"/>
  
  <!-- DT initials -->
  <text x="50" y="82" font-family="Arial, sans-serif" font-size="8" font-weight="bold" text-anchor="middle" fill="#FFFFFF">DT</text>
</svg>